<svg width="1078" height="217" viewBox="0 0 1078 217" fill="none" xmlns="http://www.w3.org/2000/svg">
<g clip-path="url(#clip0_354_4661)">
<path d="M105.02 43.54V63.14H101.27L100.81 63.63V69.74H100.85V144.16H100.82V162.74C104.32 162.4 107.9 162.26 111.53 162.36C117.03 162.5 122.63 163.18 128.16 164.37C129.54 164.7 130.92 164.99 132.29 165.35C133.66 165.74 135.02 166.13 136.38 166.51C138.91 167.22 141.43 167.94 143.93 168.65L145.85 169.2C146.46 169.36 147.05 169.45 147.64 169.59C148.83 169.84 150.01 170.09 151.18 170.33L152.94 170.71C153.52 170.84 154.1 170.98 154.71 171.04C154.94 171.07 155.17 171.1 155.41 171.13C176.36 146.77 195.6 113.33 196.46 72.13L190.51 71.38C188.14 92.45 177.41 111.2 161.45 124.67C144.65 136.92 119.18 131.91 119.18 108.43V71.57L119.45 70.59C119.57 69.64 122.21 69.84 122.39 68.26H124.63C126.15 68.26 127.38 67.11 127.38 65.7C127.38 64.29 126.15 63.14 124.63 63.14H123.71V58.5L202.67 66.54V40.13L123.71 48.17V43.53H126.4V40.67H123.31C121.57 31.76 113.85 24.82 104.16 23.63V19.95C104.16 18.46 102.87 17.25 101.28 17.24L100.31 17.53L100.26 43.52H105.02V43.54ZM110.81 43.54H116.63V63.14H110.81V43.54Z" fill="white"/>
<path d="M130.21 191.73C127.76 191.44 125.37 191.35 123.09 191.39C120.81 191.43 118.65 191.61 116.66 191.87C114.67 192.13 112.84 192.47 111.22 192.83C109.6 193.2 108.18 193.55 107.03 193.91C105.88 194.26 104.96 194.55 104.35 194.79C103.73 195.01 103.4 195.15 103.4 195.15C103.4 195.15 103.67 194.89 104.21 194.45C104.75 194.02 105.55 193.38 106.62 192.68C107.69 191.99 109.01 191.16 110.58 190.36C112.15 189.55 113.96 188.75 115.99 188.05C118.02 187.34 120.26 186.73 122.68 186.29C125.09 185.85 127.68 185.62 130.37 185.62C133.06 185.63 135.85 185.91 138.65 186.48C139.25 186.6 139.85 186.74 140.45 186.89C142.01 185.4 143.57 183.86 145.15 182.26C144.6 182.17 144.05 182.08 143.52 181.97L141.6 181.46C138.97 180.75 136.33 180.04 133.67 179.33C132.44 178.96 131.22 178.6 129.99 178.23C128.76 177.89 127.51 177.61 126.27 177.3C121.3 176.13 116.29 175.32 111.32 174.88C107.78 174.58 104.26 174.45 100.81 174.5V215.33L101.28 217.31C101.28 217.31 116.34 208.69 134.48 192.42C133.04 192.13 131.61 191.89 130.2 191.74L130.21 191.73Z" fill="white"/>
<path d="M46.3 182.29C46.3 182.29 46.75 181.73 47.67 180.76C48.6 179.81 49.97 178.39 51.84 176.78C53.72 175.18 56.02 173.24 58.83 171.3C61.63 169.34 64.89 167.3 68.6 165.37C72.3 163.43 76.44 161.6 80.95 160.05C85.46 158.49 90.34 157.24 95.48 156.38C100.62 155.55 106.02 155.16 111.53 155.32C117.03 155.46 122.63 156.14 128.16 157.33C129.54 157.66 130.92 157.95 132.29 158.31C133.66 158.7 135.02 159.09 136.38 159.47C138.91 160.19 141.43 160.9 143.93 161.61L145.85 162.16C146.47 162.32 147.05 162.41 147.64 162.55C148.83 162.8 150.01 163.05 151.18 163.29L152.94 163.67C153.52 163.8 154.1 163.94 154.71 164C155.9 164.16 157.09 164.32 158.26 164.48C159.43 164.63 160.61 164.83 161.76 164.94C162.91 165.01 164.06 165.07 165.19 165.14C166.32 165.2 167.45 165.3 168.55 165.32C169.65 165.3 170.74 165.27 171.81 165.25C172.88 165.21 173.96 165.26 175 165.14C176.04 165.03 177.06 164.93 178.07 164.83C180.11 164.7 182.01 164.23 183.88 163.92C184.34 163.83 184.81 163.77 185.26 163.65C185.71 163.53 186.15 163.41 186.59 163.29C187.47 163.05 188.33 162.82 189.17 162.6C190.82 162.07 192.39 161.5 193.87 160.96C196.76 159.72 199.3 158.52 201.29 157.3C201.79 156.99 202.27 156.7 202.71 156.43C203.15 156.13 203.55 155.85 203.93 155.6C204.71 155.1 205.33 154.61 205.85 154.21C206.87 153.41 207.4 152.92 207.4 152.92C207.4 152.92 207.11 153.62 206.38 154.81C206.01 155.4 205.56 156.14 204.97 156.95C204.68 157.36 204.36 157.81 204.01 158.26C203.64 158.69 203.25 159.16 202.83 159.64C202.01 160.66 201 161.62 199.92 162.73C198.82 163.81 197.52 164.81 196.15 165.96C195.45 166.48 194.69 166.97 193.93 167.51C193.15 168.02 192.38 168.63 191.52 169.08C190.66 169.55 189.78 170.03 188.88 170.52C188.43 170.76 187.97 171.01 187.5 171.26C187.03 171.49 186.54 171.67 186.05 171.88C184.08 172.66 182.04 173.65 179.83 174.18C178.73 174.5 177.61 174.82 176.47 175.14C175.33 175.49 174.15 175.58 172.96 175.82C171.76 176.02 170.55 176.22 169.32 176.43C168.09 176.6 166.84 176.6 165.57 176.69C164.3 176.76 163.02 176.83 161.72 176.9C160.42 176.94 159.13 176.79 157.81 176.74C156.49 176.67 155.17 176.59 153.83 176.52C152.49 176.49 151.12 176.16 149.76 175.97C148.39 175.75 147.01 175.52 145.63 175.29C144.94 175.17 144.23 175.07 143.56 174.93L141.64 174.42C139.01 173.71 136.37 173 133.71 172.29C132.49 171.92 131.26 171.56 130.03 171.19C128.8 170.85 127.55 170.57 126.31 170.26C121.34 169.09 116.33 168.28 111.36 167.84C106.39 167.41 101.47 167.31 96.72 167.61C91.96 167.85 87.37 168.46 83.03 169.24C78.69 170.03 74.61 171.05 70.86 172.15C67.11 173.26 63.7 174.46 60.7 175.62C57.7 176.81 55.08 177.89 52.97 178.92C50.85 179.93 49.17 180.75 48.06 181.37C46.93 181.97 46.34 182.32 46.34 182.32L46.3 182.29Z" fill="white"/>
<path d="M103.4 195.13C103.4 195.13 103.64 194.83 104.12 194.31C104.61 193.8 105.33 193.05 106.31 192.19C107.29 191.34 108.51 190.31 109.97 189.29C111.43 188.25 113.14 187.18 115.07 186.17C117 185.15 119.15 184.2 121.5 183.41C123.84 182.61 126.37 181.98 129.04 181.57C131.7 181.17 134.49 181.02 137.33 181.16C140.17 181.29 143.05 181.73 145.9 182.43C146.61 182.62 147.32 182.8 148.02 183.01C148.72 183.24 149.42 183.46 150.12 183.69C151.42 184.11 152.71 184.52 153.99 184.93L154.97 185.25C155.29 185.34 155.58 185.4 155.89 185.48C156.5 185.63 157.11 185.78 157.71 185.92L158.61 186.14C158.91 186.22 159.21 186.3 159.52 186.34C160.13 186.44 160.74 186.54 161.35 186.64C161.95 186.73 162.56 186.85 163.15 186.93C163.74 186.98 164.33 187.03 164.92 187.08C165.5 187.12 166.08 187.19 166.65 187.21C167.22 187.21 167.78 187.21 168.34 187.21C168.89 187.2 169.45 187.24 169.99 187.18C170.53 187.13 171.06 187.09 171.58 187.04C172.64 186.99 173.62 186.76 174.59 186.61C174.83 186.56 175.07 186.54 175.31 186.48C175.54 186.42 175.77 186.36 176 186.3C176.46 186.18 176.9 186.07 177.34 185.95C178.2 185.68 179.01 185.39 179.78 185.11C181.28 184.47 182.61 183.84 183.65 183.2C183.91 183.04 184.16 182.89 184.39 182.74C184.62 182.58 184.83 182.44 185.03 182.3C185.44 182.04 185.76 181.78 186.03 181.57C186.56 181.15 186.84 180.89 186.84 180.89C186.84 180.89 186.68 181.27 186.29 181.91C186.09 182.23 185.85 182.63 185.54 183.06C185.38 183.28 185.22 183.52 185.03 183.76C184.83 183.99 184.63 184.24 184.41 184.5C183.98 185.04 183.45 185.56 182.87 186.15C182.29 186.73 181.61 187.25 180.89 187.86C180.52 188.14 180.13 188.4 179.73 188.68C179.32 188.95 178.92 189.27 178.47 189.51C178.02 189.76 177.56 190.01 177.09 190.26C176.85 190.39 176.61 190.52 176.37 190.65C176.12 190.77 175.87 190.86 175.61 190.97C174.59 191.38 173.52 191.89 172.37 192.15C171.8 192.31 171.22 192.47 170.63 192.64C170.04 192.82 169.43 192.86 168.81 192.97C168.19 193.07 167.56 193.16 166.93 193.26C166.29 193.34 165.65 193.33 164.99 193.36C164.33 193.38 163.67 193.41 163 193.43C162.33 193.43 161.66 193.34 160.98 193.3C160.3 193.25 159.62 193.19 158.93 193.14C158.24 193.11 157.54 192.91 156.83 192.8C156.12 192.66 155.42 192.53 154.7 192.39C154.35 192.32 153.98 192.25 153.63 192.17L152.64 191.87C151.29 191.46 149.93 191.04 148.57 190.63C147.94 190.42 147.31 190.21 146.68 189.99C146.05 189.79 145.41 189.63 144.77 189.44C142.22 188.75 139.64 188.26 137.08 187.96C134.52 187.67 131.98 187.57 129.53 187.68C127.07 187.76 124.7 188.04 122.45 188.42C120.2 188.81 118.08 189.32 116.14 189.87C114.2 190.43 112.42 191.05 110.86 191.65C109.3 192.26 107.94 192.83 106.83 193.36C105.73 193.89 104.85 194.31 104.27 194.64C103.68 194.96 103.37 195.14 103.37 195.14L103.4 195.13Z" fill="white"/>
<path d="M83.38 108.42C83.38 131.89 57.92 136.9 41.12 124.67C25.17 111.2 14.42 92.46 12.05 71.39L6.1 72.14C7.05 117.22 29.99 153 53.1 177.77C57.03 175.57 65.26 171.97 68.48 170.29C72.18 168.35 76.44 168.64 80.95 167.08C85.45 165.52 90.34 164.27 95.48 163.41C97.37 163.11 99.3 162.86 101.25 162.68V141.03C97.61 140.96 92.27 140.7 88.75 140.24V70.58H101.23V63.13H97.43V43.53H101.22V17.24C99.61 17.24 98.32 18.45 98.32 19.95V23.63C88.63 24.82 80.92 31.76 79.18 40.67H76.1V43.53H78.79V48.15L0 40.14V66.55L78.79 58.53V63.15H77.93C76.41 63.15 75.18 64.3 75.18 65.71C75.18 67.12 76.41 68.27 77.93 68.27H80.03C80.22 69.85 82.95 69.65 83.08 70.6L83.38 71.71V108.43V108.42ZM85.86 43.54H91.68V63.14H85.86V43.54Z" fill="white"/>
<path d="M101.26 141.04V70.59H101.24V141.04H101.26Z" fill="white"/>
<path d="M96.7 174.63C91.94 174.87 87.35 175.48 83.01 176.26C78.67 177.05 74.59 178.07 70.84 179.17C67.09 180.28 63.68 181.48 60.68 182.64C59.97 182.92 59.28 183.2 58.61 183.47C80.65 205.51 101.27 217.3 101.27 217.3V174.48C99.73 174.5 98.21 174.54 96.71 174.63H96.7Z" fill="white"/>
<path d="M186.36 35.92L189.38 35.54C183.23 21.55 173.36 9.34 160.93 0C172.47 9.6 181.34 21.94 186.37 35.92H186.36Z" fill="white"/>
<path d="M41.62 0C29.19 9.34 19.33 21.54 13.17 35.53L16.18 35.91C21.21 21.93 30.08 9.59 41.62 0Z" fill="white"/>
<path fill-rule="evenodd" clip-rule="evenodd" d="M277.375 24.02H236.82V121.699H277.375C290.378 121.699 296.886 116.017 296.886 104.655V85.6048C296.886 78.5405 294.581 74.1339 289.971 72.3983C294.581 70.4594 296.886 65.7002 296.886 58.1208V40.9145C296.886 29.647 290.378 24.02 277.375 24.02ZM275.219 42.9076V61.1851C275.219 63.7477 273.836 65.0223 271.07 65.0223H258.474V39.0704H271.07C273.836 39.0704 275.219 40.345 275.219 42.9076ZM275.219 83.7607V102.811C275.219 105.374 273.836 106.648 271.07 106.648H258.474V80.0727H271.07C272.602 80.0727 273.687 80.3574 274.297 80.9134C274.907 81.4828 275.219 82.432 275.219 83.7607ZM359.854 105.564H331.746V24.02H309.943V121.685H359.854V105.564ZM411.459 121.699L408.083 104.031H385.806L382.429 121.699H360.776L382.89 24.02H410.849L433.587 121.699H411.473H411.459ZM388.87 88.0589H404.842L396.856 46.7448L388.87 88.0589ZM476.732 58.2699H498.847H498.86V40.9145C498.86 29.647 492.352 24.02 479.349 24.02H459.688C446.794 24.02 440.34 29.647 440.34 40.9145V104.804C440.34 116.072 446.794 121.699 459.688 121.699H479.349C492.352 121.699 498.86 116.072 498.86 104.804V87.9098H476.745V102.811C476.745 104.248 476.434 105.252 475.823 105.808C475.2 106.363 474.183 106.648 472.746 106.648H466.454C464.922 106.648 463.837 106.377 463.227 105.808C462.617 105.238 462.305 104.248 462.305 102.811V42.9076C462.305 40.345 463.688 39.0704 466.454 39.0704H472.746C475.403 39.0704 476.732 40.345 476.732 42.9076V58.2699ZM510.209 121.699V24.02H532.025V121.699H510.209ZM575.021 24.02L555.36 72.2492L575.021 121.699H551.374L532.486 72.2492L551.374 24.02H575.021ZM660.578 105.564H632.47V24.02H610.667V121.685H660.578V105.564ZM712.17 121.699L708.793 104.031H686.516L683.14 121.699H661.486L683.601 24.02H711.559L734.298 121.699H712.183H712.17ZM705.566 88.0589L697.58 46.7448L689.594 88.0589H705.566ZM802.797 24.02H782.676H782.662V82.3777L761.619 24.02H741.809V121.699H761.782V63.1783L783.137 121.699H802.797V24.02ZM868.07 24.02V40.1416H850.105V121.699H828.139V40.1416H810.323V24.02H868.07ZM929.045 105.564H897.71V80.0727H923.364V63.9511H897.71V40.1416H927.811V24.02H875.745V121.685H929.045V105.564ZM960.366 85.1437V121.699H938.549V24.02H978.792C991.701 24.02 998.141 29.647 998.141 40.9145V68.2493C998.141 77.266 994.046 82.6896 985.857 84.5336L1003.06 121.699H979.565L964.203 85.1437H960.366ZM960.366 40.1416V69.6323H972.189C973.626 69.6323 974.643 69.3476 975.267 68.7917C975.877 68.2357 976.189 67.2866 976.189 65.9443V43.9788C976.189 41.4161 974.86 40.1416 972.189 40.1416H960.366ZM1071.58 24.02H1051.46H1051.44V82.3777L1030.4 24.02H1010.59V121.699H1030.56V63.1783L1051.92 121.699H1071.58V24.02Z" fill="white"/>
<path d="M346.254 164.843H236.82V170.524H346.254V164.843Z" fill="white"/>
<path d="M1077.72 164.843H968.284V170.524H1077.72V164.843Z" fill="white"/>
<path fill-rule="evenodd" clip-rule="evenodd" d="M399.012 187.826C391.989 187.826 386.294 184.87 386.294 177.534L386.307 177.521H377.521C377.738 189.426 387.012 194.673 398.47 194.673C408.381 194.673 418.428 190.375 418.428 179.609C418.428 174.497 415.188 169.318 408.652 167.365C406.684 166.801 399.856 165.09 396.308 164.201L396.308 164.201C395.163 163.914 394.36 163.713 394.172 163.664C390.578 162.647 388.192 160.898 388.192 157.467C388.192 152.627 393.317 151.216 397.399 151.216C403.514 151.216 407.73 153.494 408.219 159.691H417.005C417.005 149.671 408.151 144.356 397.751 144.356C388.68 144.356 379.406 148.789 379.406 158.484C379.406 163.46 381.86 168.504 390.511 170.66C392.904 171.285 394.998 171.799 396.862 172.257L396.862 172.257C400.416 173.13 403.132 173.797 405.48 174.633C407.514 175.379 409.629 176.992 409.629 180.558C409.629 184.124 406.741 187.826 399.012 187.826ZM494.535 145.508H458.414H458.4V193.548H495.023V186.28H467.187V172.219H492.488V165.358H467.187V152.776H494.535V145.508ZM568.906 160.789C567.428 155.203 563.699 151.23 556.391 151.23C545.639 151.23 541.137 160.315 541.137 169.535C541.137 178.755 545.639 187.839 556.391 187.839C564.269 187.839 568.404 182.253 569.177 175.256H577.746C576.973 186.754 568.54 194.7 556.377 194.7C541.408 194.7 532.337 183.324 532.337 169.535C532.337 155.745 541.408 144.369 556.377 144.369C567.767 144.369 576.553 150.43 577.678 160.789H568.906ZM626.341 145.508H617.555V176.26C617.555 188.571 625.785 194.7 638.151 194.7C650.517 194.7 658.747 188.571 658.747 176.26V145.508H649.961V173.494C649.961 179.948 649.541 187.419 638.151 187.419C626.762 187.419 626.341 179.948 626.341 173.494V145.508ZM701.214 145.508H725.186C736.223 145.508 741.769 150.349 741.769 158.498C741.769 167.718 735.165 170.063 733.471 170.606V170.741C736.494 171.08 740.928 173.372 740.928 180.897C740.928 186.551 741.769 191.595 743.667 193.548H734.243C732.901 191.459 732.901 188.843 732.901 186.483C732.901 177.67 731.003 173.765 722.922 173.765H709.986V193.548H701.2V145.508H701.214ZM710 167.379H724.413C730.04 167.379 732.982 164.816 732.982 159.704C732.982 153.508 728.833 152.369 724.264 152.369H710V167.379ZM791.815 145.508H783.028V193.548H791.815V145.508ZM830.132 145.508H870.755V152.776H854.796V193.548H846.01V152.776H830.119V145.508H830.132ZM903.161 145.522L921.994 174.714H922.008V193.548H930.794V174.714L949.56 145.522H939.716L926.645 167.053L913.357 145.522H903.161Z" fill="white"/>
</g>
<defs>
<clipPath id="clip0_354_4661">
<rect width="1078" height="217" fill="white"/>
</clipPath>
</defs>
</svg>
