<svg viewBox="0 0 338 74" xmlns="http://www.w3.org/2000/svg">
	<path d="M334.5 74V1.31134e-07L337.5 0V74H334.5Z" fill="#953EFE"/>
	<path d="M287.5 74V8.67008e-08L288.5 4.44334e-08V74H287.5Z" fill="#FFFFFF" opacity="0.7"/>
	<path d="M311.5 74V8.67008e-08L312.5 4.44334e-08V74H311.5Z" fill="#FFFFFF" opacity="0.7"/>
	<path d="M239.5 74V8.65749e-08L240.5 4.45598e-08V74H239.5Z" fill="#FFFFFF" opacity="0.6"/>
	<path d="M263.5 74V8.65749e-08L264.5 4.45598e-08V74H263.5Z" fill="#FFFFFF" opacity="0.6"/>
	<path d="M191.5 74V8.65749e-08L192.5 4.45598e-08V74H191.5Z" fill="#FFFFFF" opacity="0.5"/>
	<path d="M215.5 74V8.65749e-08L216.5 4.45598e-08V74H215.5Z" fill="#FFFFFF" opacity="0.5"/>
	<path d="M144.5 74V8.65749e-08L145.5 4.45598e-08V74H144.5Z" fill="#FFFFFF" opacity="0.4"/>
	<path d="M168.5 74V8.65749e-08L169.5 4.45598e-08V74H168.5Z" fill="#FFFFFF" opacity="0.4"/>
	<path d="M96.5 74V8.65749e-08L97.5 4.45598e-08V74H96.5Z" fill="#FFFFFF" opacity="0.3"/>
	<path d="M120.5 74V8.65749e-08L121.5 4.45598e-08V74H120.5Z" fill="#FFFFFF" opacity="0.3"/>
	<path d="M48.5 74L48.5 8.65749e-08L49.5 4.45598e-08L49.5 74H48.5Z" fill="#FFFFFF" opacity="0.2"/>
	<path d="M72.5 74V8.65749e-08L73.5 4.45598e-08V74H72.5Z" fill="#FFFFFF" opacity="0.2"/>
	<path d="M0.500003 74L0.5 8.65749e-08L1.5 4.45598e-08L1.5 74H0.500003Z" fill="#FFFFFF" opacity="0.1"/>
	<path d="M24.5 74L24.5 8.65749e-08L25.5 4.45598e-08L25.5 74H24.5Z" fill="#FFFFFF" opacity="0.1"/>
</svg>