<svg viewBox="0 0 336 78" xmlns="http://www.w3.org/2000/svg">
<path d="M327.5 3L8.5 3C5.46243 3 3 5.46243 3 8.5C3 11.5376 5.46244 14 8.50001 14L327.5 14C330.538 14 333 11.5376 333 8.5C333 5.46244 330.538 3 327.5 3ZM0 8.5C4.28615e-06 13.1944 3.8056 17 8.50002 17H327.5C332.194 17 336 13.1944 336 8.5C336 3.80558 332.194 -9.82391e-09 327.5 0L8.49999 6.67568e-07C3.80557 6.77392e-07 -4.28614e-06 3.80558 0 8.5Z" fill="#953EFE"/>
<path d="M327.5 22H8.49999C4.35786 22 0.999996 25.3579 1 29.5C1 33.6421 4.35788 37 8.50002 37H327.5C331.642 37 335 33.6421 335 29.5C335 25.3579 331.642 22 327.5 22ZM0 29.5C4.28615e-06 34.1944 3.8056 38 8.50002 38H327.5C332.194 38 336 34.1944 336 29.5C336 24.8056 332.194 21 327.5 21H8.49999C3.80557 21 -4.28614e-06 24.8056 0 29.5Z" fill="#FFFFFF" fill-opacity="0.8"/>
<path d="M328 43H7.99999C4.134 43 0.999997 46.134 1 50C1 53.866 4.13402 57 8.00002 57H328C331.866 57 335 53.866 335 50C335 46.134 331.866 43 328 43ZM4.56518e-07 50C4.49053e-06 54.4183 3.58174 58 8.00002 58H328C332.418 58 336 54.4183 336 50C336 45.5817 332.418 42 328 42H7.99999C3.58172 42 -3.5775e-06 45.5817 4.56518e-07 50Z" fill="#FFFFFF" fill-opacity="0.4"/>
<path d="M328 63L8 63C4.13401 63 1 66.134 1.00001 70C1.00001 73.866 4.13402 77 8.00002 77H328C331.866 77 335 73.866 335 70C335 66.134 331.866 63 328 63ZM5.1241e-06 70C6.58028e-06 74.4183 3.58174 78 8.00002 78H328C332.418 78 336 74.4183 336 70C336 65.5817 332.418 62 328 62L8 62C3.58172 62 3.66792e-06 65.5817 5.1241e-06 70Z" fill="#FFFFFF" fill-opacity="0.1"/>
</svg>