<svg viewBox="0 0 230 60" xmlns="http://www.w3.org/2000/svg">
<path d="M28.1257 12.5627V17.8118H27.1214L26.9982 17.943V19.5794H27.0089V39.51H27.0009V44.486C27.9382 44.3949 28.897 44.3574 29.8691 44.3842C31.3421 44.4217 32.8419 44.6038 34.3229 44.9225C34.6925 45.0109 35.062 45.0886 35.4289 45.185C35.7958 45.2894 36.1601 45.3939 36.5243 45.4956C37.2019 45.6858 37.8768 45.8786 38.5463 46.0688L39.0605 46.2161C39.2239 46.2589 39.3819 46.283 39.5399 46.3205C39.8586 46.3875 40.1746 46.4544 40.4879 46.5187L40.9593 46.6205C41.1146 46.6553 41.27 46.6928 41.4333 46.7088C41.4949 46.7169 41.5565 46.7249 41.6208 46.7329C47.2315 40.209 52.3842 31.2533 52.6145 20.2194L51.021 20.0186C50.3863 25.6614 47.5127 30.6829 43.2384 34.2903C38.7391 37.571 31.9179 36.2293 31.9179 29.941V20.0695L31.9902 19.807C32.0224 19.5526 32.7294 19.6061 32.7776 19.183H33.3775C33.7846 19.183 34.114 18.875 34.114 18.4974C34.114 18.1198 33.7846 17.8118 33.3775 17.8118H33.1311V16.5691L54.2776 18.7224V11.6494L33.1311 13.8026V12.56H33.8515V11.794H33.024C32.558 9.40781 30.4905 7.54919 27.8954 7.23049V6.24494C27.8954 5.8459 27.5499 5.52184 27.1241 5.51917L26.8643 5.59683L26.8509 12.5573H28.1257V12.5627ZM29.6763 12.5627H31.235V17.8118H29.6763V12.5627Z" fill="black"/>
<path d="M34.872 52.2499C34.2158 52.1722 33.5758 52.1481 32.9651 52.1589C32.3545 52.1696 31.776 52.2178 31.2431 52.2874C30.7102 52.357 30.2201 52.4481 29.7862 52.5445C29.3523 52.6436 28.972 52.7373 28.6641 52.8337C28.3561 52.9275 28.1097 53.0051 27.9463 53.0694C27.7803 53.1283 27.6919 53.1658 27.6919 53.1658C27.6919 53.1658 27.7642 53.0962 27.9088 52.9784C28.0534 52.8632 28.2677 52.6918 28.5543 52.5043C28.8408 52.3195 29.1943 52.0973 29.6148 51.883C30.0353 51.6661 30.52 51.4518 31.0637 51.2644C31.6073 51.0742 32.2072 50.9108 32.8553 50.793C33.5008 50.6752 34.1944 50.6136 34.9148 50.6136C35.6352 50.6162 36.3824 50.6912 37.1323 50.8439C37.293 50.876 37.4537 50.9135 37.6144 50.9537C38.0322 50.5547 38.45 50.1422 38.8731 49.7137C38.7258 49.6896 38.5785 49.6655 38.4366 49.6361L37.9224 49.4995C37.218 49.3093 36.511 49.1192 35.7986 48.929C35.4692 48.8299 35.1425 48.7335 34.8131 48.6344C34.4836 48.5434 34.1489 48.4684 33.8168 48.3854C32.4858 48.072 31.144 47.8551 29.813 47.7373C28.8649 47.6569 27.9222 47.6221 26.9983 47.6355V58.5703L27.1241 59.1006C27.1241 59.1006 31.1574 56.792 36.0155 52.4347C35.6299 52.357 35.2469 52.2928 34.8693 52.2526L34.872 52.2499Z" fill="black"/>
<path d="M12.3997 49.7218C12.3997 49.7218 12.5202 49.5718 12.7666 49.312C13.0157 49.0576 13.3826 48.6773 13.8834 48.2461C14.3869 47.8176 15.0028 47.298 15.7554 46.7785C16.5053 46.2536 17.3784 45.7072 18.3719 45.1904C19.3628 44.6708 20.4716 44.1807 21.6794 43.7656C22.8873 43.3478 24.1942 43.013 25.5708 42.7827C26.9473 42.5604 28.3935 42.456 29.8692 42.4988C31.3421 42.5363 32.8419 42.7184 34.3229 43.0371C34.6925 43.1255 35.0621 43.2032 35.429 43.2996C35.7959 43.404 36.1601 43.5085 36.5243 43.6103C37.2019 43.8031 37.8768 43.9932 38.5463 44.1834L39.0605 44.3307C39.2266 44.3735 39.3819 44.3976 39.5399 44.4351C39.8586 44.5021 40.1746 44.569 40.4879 44.6333L40.9593 44.7351C41.1146 44.7699 41.27 44.8074 41.4333 44.8234C41.752 44.8663 42.0707 44.9091 42.3841 44.952C42.6974 44.9922 43.0134 45.0457 43.3214 45.0752C43.6294 45.0939 43.9374 45.11 44.24 45.1288C44.5426 45.1448 44.8453 45.1716 45.1399 45.177C45.4345 45.1716 45.7264 45.1636 46.0129 45.1582C46.2995 45.1475 46.5887 45.1609 46.8673 45.1288C47.1458 45.0993 47.419 45.0725 47.6894 45.0457C48.2358 45.0109 48.7446 44.885 49.2454 44.802C49.3686 44.7779 49.4945 44.7619 49.615 44.7297C49.7355 44.6976 49.8534 44.6654 49.9712 44.6333C50.2069 44.569 50.4372 44.5074 50.6622 44.4485C51.1041 44.3066 51.5245 44.1539 51.9209 44.0093C52.6949 43.6772 53.3751 43.3558 53.9081 43.0291C54.042 42.9461 54.1705 42.8684 54.2884 42.7961C54.4062 42.7158 54.5133 42.6408 54.6151 42.5738C54.824 42.4399 54.99 42.3087 55.1293 42.2016C55.4025 41.9873 55.5444 41.8561 55.5444 41.8561C55.5444 41.8561 55.4667 42.0435 55.2712 42.3622C55.1721 42.5203 55.0516 42.7184 54.8936 42.9354C54.816 43.0452 54.7303 43.1657 54.6365 43.2862C54.5374 43.4014 54.433 43.5272 54.3205 43.6558C54.1009 43.929 53.8304 44.1861 53.5412 44.4833C53.2466 44.7726 52.8984 45.0404 52.5315 45.3484C52.344 45.4876 52.1405 45.6189 51.937 45.7635C51.7281 45.9001 51.5219 46.0634 51.2915 46.1839C51.0612 46.3098 50.8255 46.4384 50.5845 46.5696C50.464 46.6339 50.3408 46.7008 50.2149 46.7678C50.0891 46.8294 49.9578 46.8776 49.8266 46.9338C49.299 47.1427 48.7527 47.4078 48.1608 47.5498C47.8662 47.6355 47.5662 47.7212 47.2609 47.8069C46.9556 47.9006 46.6396 47.9247 46.3209 47.989C45.9995 48.0426 45.6755 48.0961 45.3461 48.1524C45.0167 48.1979 44.6819 48.1979 44.3418 48.222C44.0017 48.2407 43.6589 48.2595 43.3107 48.2782C42.9625 48.289 42.6171 48.2488 42.2635 48.2354C41.91 48.2166 41.5565 48.1952 41.1977 48.1765C40.8388 48.1684 40.4719 48.0801 40.1077 48.0292C39.7407 47.9703 39.3712 47.9087 39.0016 47.8471C38.8168 47.8149 38.6266 47.7881 38.4472 47.7506L37.933 47.6141C37.2287 47.4239 36.5216 47.2338 35.8093 47.0436C35.4825 46.9445 35.1531 46.8481 34.8237 46.749C34.4943 46.658 34.1595 46.583 33.8274 46.5C32.4964 46.1866 31.1547 45.9697 29.8236 45.8519C28.4926 45.7367 27.175 45.7099 25.9028 45.7903C24.6281 45.8545 23.3988 46.0179 22.2365 46.2268C21.0742 46.4384 19.9815 46.7115 18.9772 47.0061C17.9729 47.3034 17.0597 47.6248 16.2562 47.9354C15.4528 48.2541 14.7511 48.5434 14.186 48.8192C13.6183 49.0897 13.1683 49.3093 12.8711 49.4754C12.5684 49.6361 12.4104 49.7298 12.4104 49.7298L12.3997 49.7218Z" fill="black"/>
<path d="M27.6919 53.1605C27.6919 53.1605 27.7562 53.0801 27.8847 52.9409C28.016 52.8043 28.2088 52.6034 28.4713 52.3731C28.7337 52.1455 29.0604 51.8696 29.4515 51.5964C29.8425 51.3179 30.3004 51.0313 30.8173 50.7609C31.3342 50.4877 31.91 50.2333 32.5393 50.0217C33.166 49.8074 33.8436 49.6387 34.5586 49.5289C35.271 49.4218 36.0182 49.3816 36.7788 49.4191C37.5394 49.4539 38.3107 49.5718 39.074 49.7592C39.2641 49.8101 39.4543 49.8583 39.6417 49.9146C39.8292 49.9762 40.0167 50.0351 40.2041 50.0967C40.5523 50.2092 40.8978 50.319 41.2406 50.4288L41.503 50.5145C41.5887 50.5386 41.6664 50.5546 41.7494 50.5761C41.9128 50.6162 42.0762 50.6564 42.2369 50.6939L42.4779 50.7528C42.5582 50.7742 42.6386 50.7957 42.7216 50.8064C42.885 50.8332 43.0483 50.8599 43.2117 50.8867C43.3724 50.9108 43.5357 50.943 43.6938 50.9644C43.8518 50.9778 44.0098 50.9912 44.1678 51.0046C44.3231 51.0153 44.4784 51.034 44.6311 51.0394C44.7838 51.0394 44.9337 51.0394 45.0837 51.0394C45.231 51.0367 45.381 51.0474 45.5256 51.0313C45.6702 51.018 45.8122 51.0072 45.9514 50.9939C46.2353 50.9805 46.4978 50.9189 46.7575 50.8787C46.8218 50.8653 46.8861 50.8599 46.9504 50.8439C47.012 50.8278 47.0736 50.8117 47.1352 50.7957C47.2583 50.7635 47.3762 50.7341 47.494 50.7019C47.7243 50.6296 47.9413 50.552 48.1475 50.477C48.5492 50.3056 48.9054 50.1368 49.1839 49.9654C49.2536 49.9226 49.3205 49.8824 49.3821 49.8423C49.4437 49.7994 49.4999 49.7619 49.5535 49.7244C49.6633 49.6548 49.749 49.5852 49.8213 49.5289C49.9633 49.4164 50.0382 49.3468 50.0382 49.3468C50.0382 49.3468 49.9954 49.4486 49.8909 49.62C49.8374 49.7057 49.7731 49.8128 49.6901 49.928C49.6472 49.9869 49.6044 50.0511 49.5535 50.1154C49.4999 50.177 49.4464 50.244 49.3875 50.3136C49.2723 50.4582 49.1304 50.5975 48.975 50.7555C48.8197 50.9108 48.6376 51.0501 48.4448 51.2135C48.3457 51.2884 48.2412 51.3581 48.1341 51.4331C48.0243 51.5054 47.9172 51.5911 47.7967 51.6553C47.6761 51.7223 47.5529 51.7893 47.4271 51.8562C47.3628 51.891 47.2985 51.9258 47.2342 51.9607C47.1673 51.9928 47.1003 52.0169 47.0307 52.0464C46.7575 52.1562 46.471 52.2927 46.163 52.3624C46.0103 52.4052 45.855 52.4481 45.697 52.4936C45.539 52.5418 45.3756 52.5525 45.2096 52.582C45.0435 52.6088 44.8748 52.6329 44.7061 52.6596C44.5347 52.6811 44.3633 52.6784 44.1865 52.6864C44.0098 52.6918 43.833 52.6998 43.6536 52.7052C43.4741 52.7052 43.2947 52.6811 43.1126 52.6704C42.9305 52.657 42.7484 52.6409 42.5636 52.6275C42.3788 52.6195 42.1913 52.5659 42.0012 52.5365C41.811 52.499 41.6236 52.4641 41.4307 52.4267C41.337 52.4079 41.2379 52.3892 41.1442 52.3677L40.879 52.2874C40.5175 52.1776 40.1533 52.0651 39.789 51.9553C39.6203 51.8991 39.4516 51.8428 39.2829 51.7839C39.1141 51.7303 38.9427 51.6875 38.7713 51.6366C38.0884 51.4518 37.3975 51.3206 36.7119 51.2402C36.0263 51.1626 35.346 51.1358 34.6899 51.1653C34.0311 51.1867 33.3963 51.2617 32.7938 51.3634C32.1912 51.4679 31.6234 51.6045 31.1039 51.7518C30.5843 51.9017 30.1076 52.0678 29.6898 52.2285C29.272 52.3918 28.9078 52.5445 28.6105 52.6864C28.3159 52.8284 28.0802 52.9409 27.9249 53.0292C27.7669 53.1149 27.6839 53.1631 27.6839 53.1631L27.6919 53.1605Z" fill="black"/>
<path d="M22.3303 29.9384C22.3303 36.2239 15.5117 37.5657 11.0125 34.2903C6.74086 30.6829 3.86187 25.6641 3.22715 20.0212L1.63366 20.2221C1.88808 32.2951 8.03172 41.8775 14.2209 48.5112C15.2734 47.922 17.4775 46.9579 18.3398 46.508C19.3308 45.9884 20.4716 46.0661 21.6795 45.6483C22.8846 45.2305 24.1942 44.8957 25.5708 44.6654C26.077 44.5851 26.5938 44.5181 27.1161 44.4699V38.6718C26.1412 38.653 24.7111 38.5834 23.7684 38.4602V19.8043H27.1107V17.8091H26.093V12.56H27.108V5.51917C26.6769 5.51917 26.3314 5.84322 26.3314 6.24494V7.23049C23.7363 7.54919 21.6714 9.40781 21.2054 11.794H20.3806V12.56H21.101V13.7973L0 11.6521V18.725L21.101 16.5772V17.8145H20.8707C20.4636 17.8145 20.1342 18.1225 20.1342 18.5001C20.1342 18.8777 20.4636 19.1857 20.8707 19.1857H21.4331C21.484 19.6088 22.2151 19.5553 22.2499 19.8097L22.3303 20.1069V29.941V29.9384ZM22.9944 12.5627H24.5531V17.8118H22.9944V12.5627Z" fill="black"/>
<path d="M27.1188 38.6744V19.807H27.1135V38.6744H27.1188Z" fill="black"/>
<path d="M25.8975 47.6703C24.6227 47.7346 23.3934 47.8979 22.2311 48.1068C21.0688 48.3184 19.9761 48.5916 18.9718 48.8862C17.9675 49.1834 17.0543 49.5048 16.2509 49.8155C16.0607 49.8905 15.8759 49.9655 15.6965 50.0378C21.5991 55.9404 27.1214 59.0979 27.1214 59.0979V47.6301C26.709 47.6355 26.3019 47.6462 25.9002 47.6703H25.8975Z" fill="black"/>
<path d="M49.9097 10.5219L50.7185 10.4202C49.0715 6.67347 46.4281 3.40347 43.0992 0.9021C46.1898 3.47311 48.5653 6.77792 49.9124 10.5219H49.9097Z" fill="black"/>
<path d="M11.1464 0.9021C7.81745 3.40347 5.17681 6.67079 3.52708 10.4175L4.3332 10.5193C5.6803 6.77524 8.0558 3.47043 11.1464 0.9021Z" fill="black"/>
<path fill-rule="evenodd" clip-rule="evenodd" d="M110.896 47.3783C110.781 46.6579 110.226 46.0607 109.158 46.0607C107.961 46.0607 107.192 46.7516 107.192 48.163C107.192 49.1352 107.712 50.1368 109.115 50.1368C110.004 50.1368 110.674 49.711 110.896 48.704H111.651C111.536 49.8422 110.553 50.801 109.107 50.801C107.824 50.801 106.437 50.0805 106.437 48.0853C106.437 46.5883 107.364 45.3992 109.102 45.3992C110.127 45.3992 111.517 45.8464 111.651 47.3783H110.896ZM64.8562 49.1727H67.3496L67.9977 50.6697H68.8601L66.5595 45.5277H65.6972L63.3967 50.6697H64.2081L64.8562 49.1727ZM65.1428 48.5085L66.0962 46.2321H66.0989L67.0737 48.5085H65.1428ZM74.2832 46.1892H76.2061V50.6697H76.9614V46.1892H78.8843V45.5277H74.2832V46.1892ZM86.6616 46.1892H84.7387V45.5277H89.3397V46.1892H87.4168V50.6697H86.6616V46.1892ZM96.3537 49.1727H98.8471L99.4952 50.6697H100.358L98.057 45.5277H97.1947L94.8941 50.6697H95.7056L96.3537 49.1727ZM96.6403 48.5085L97.5937 46.2321H97.5964L98.5712 48.5085H96.6403ZM120.067 48.1644L119.142 48.9905V50.6697H118.387V45.5277H119.142V48.1121L121.984 45.5277H123.052L120.636 47.6595L123.186 50.6697H122.147L120.067 48.1644ZM139.204 46.1892H137.281V45.5277H141.882V46.1892H139.959V50.6697H139.204V46.1892ZM153.652 48.0987C153.652 46.7811 152.876 45.3992 150.824 45.3992C148.773 45.3992 147.996 46.7811 147.996 48.0987C147.996 49.4164 148.773 50.7983 150.824 50.7983C152.876 50.7983 153.652 49.4164 153.652 48.0987ZM148.751 48.0987C148.751 46.7382 149.665 46.0607 150.824 46.0607C151.987 46.0607 152.897 46.7382 152.897 48.0987C152.897 49.4592 151.987 50.1368 150.824 50.1368C149.662 50.1368 148.751 49.4592 148.751 48.0987ZM168.529 45.5277H171.108C172.632 45.5277 173.331 46.5374 173.331 48.0264C173.331 49.5155 172.713 50.6697 171.151 50.6697H168.529V45.5277ZM171.114 50.0082C172.354 50.0082 172.573 48.9557 172.573 48.0425C172.573 47.1292 172.281 46.1919 170.972 46.1919H169.285V50.0082H171.114ZM184.127 45.5277H180.037V50.6671H184.197V50.0056H180.793V48.3424H184.028V47.6809H180.793V46.1892H184.127V45.5277ZM190.889 45.5277H194.829V46.1892H191.644V47.7077H194.679V48.3692H191.644V50.6671H190.889V45.5277ZM205.434 45.5277H201.345V50.6671H205.504V50.0056H202.1V48.3424H205.335V47.6809H202.1V46.1892H205.434V45.5277ZM212.994 46.5802H212.981V50.6697H212.226V45.5277H213.101L216.371 49.6172H216.385V45.5277H217.14V50.6697H216.264L212.994 46.5802ZM226.682 45.5277H224.103V50.6697H226.725C228.287 50.6697 228.905 49.5155 228.905 48.0264C228.905 46.5374 228.206 45.5277 226.682 45.5277ZM228.147 48.0425C228.147 48.9557 227.928 50.0082 226.688 50.0082H224.859V46.1919H226.546C227.855 46.1919 228.147 47.1292 228.147 48.0425Z" fill="black"/>
<path fill-rule="evenodd" clip-rule="evenodd" d="M71.4338 7.33496H63.4235V26.6282H71.4338C74.0021 26.6282 75.2876 25.5061 75.2876 23.2618V19.499C75.2876 18.1037 74.8323 17.2333 73.9217 16.8905C74.8323 16.5076 75.2876 15.5675 75.2876 14.0705V10.6719C75.2876 8.44639 74.0021 7.33496 71.4338 7.33496ZM71.0079 11.0656V14.6757C71.0079 15.1819 70.7348 15.4336 70.1884 15.4336H67.7004V10.3077H70.1884C70.7348 10.3077 71.0079 10.5594 71.0079 11.0656ZM71.0079 19.1348V22.8976C71.0079 23.4038 70.7348 23.6555 70.1884 23.6555H67.7004V18.4064H70.1884C70.4911 18.4064 70.7053 18.4626 70.8258 18.5724C70.9463 18.6849 71.0079 18.8724 71.0079 19.1348ZM87.725 23.4413H82.1732V7.33498H77.8668V26.6256H87.725V23.4413ZM97.9179 26.6282L97.2511 23.1386H92.8509L92.184 26.6282H87.9071L92.2751 7.33498H97.7974L102.289 26.6282H97.9206H97.9179ZM93.4561 19.9838H96.611L95.0336 11.8235L93.4561 19.9838ZM110.81 14.0999H115.179H115.181V10.6719C115.181 8.4464 113.896 7.33498 111.327 7.33498H107.444C104.897 7.33498 103.622 8.4464 103.622 10.6719V23.2913C103.622 25.5168 104.897 26.6282 107.444 26.6282H111.327C113.896 26.6282 115.181 25.5168 115.181 23.2913V19.9543H110.813V22.8976C110.813 23.1815 110.752 23.3797 110.631 23.4895C110.508 23.5993 110.307 23.6555 110.023 23.6555H108.78C108.478 23.6555 108.264 23.6019 108.143 23.4895C108.023 23.377 107.961 23.1815 107.961 22.8976V11.0656C107.961 10.5594 108.234 10.3077 108.78 10.3077H110.023C110.548 10.3077 110.81 10.5594 110.81 11.0656V14.0999ZM117.423 26.6282V7.33498H121.732V26.6282H117.423ZM130.224 7.33498L126.341 16.8611L130.224 26.6282H125.554L121.823 16.8611L125.554 7.33498H130.224ZM147.123 23.4413H141.572V7.33498H137.265V26.6256H147.123V23.4413ZM157.314 26.6282L156.647 23.1386H152.247L151.58 26.6282H147.303L151.671 7.33498H157.193L161.684 26.6282H157.316H157.314ZM156.009 19.9838L154.432 11.8235L152.854 19.9838H156.009ZM175.214 7.33498H171.24H171.237V18.8617L167.081 7.33498H163.168V26.6282H167.113V15.0694L171.331 26.6282H175.214V7.33498ZM188.107 7.33498V10.5193H184.558V26.6282H180.22V10.5193H176.701V7.33498H188.107ZM200.15 23.4413H193.961V18.4064H199.028V15.2221H193.961V10.5193H199.907V7.33498H189.623V26.6256H200.15V23.4413ZM206.337 19.408V26.6282H202.028V7.33498H209.976C212.526 7.33498 213.798 8.4464 213.798 10.6719V16.071C213.798 17.852 212.989 18.9233 211.372 19.2875L214.77 26.6282H210.129L207.095 19.408H206.337ZM206.337 10.5193V16.3442H208.672C208.956 16.3442 209.157 16.288 209.28 16.1782C209.401 16.0684 209.462 15.8809 209.462 15.6158V11.2772C209.462 10.771 209.2 10.5193 208.672 10.5193H206.337ZM228.303 7.33498H224.328H224.326V18.8617L220.169 7.33498H216.257V26.6282H220.201V15.0694L224.419 26.6282H228.303V7.33498Z" fill="black"/>
<path d="M85.0387 35.15H63.4235V36.2722H85.0387V35.15Z" fill="black"/>
<path d="M229.516 35.15H207.901V36.2722H229.516V35.15Z" fill="black"/>
<path fill-rule="evenodd" clip-rule="evenodd" d="M95.4593 39.6895C94.072 39.6895 92.9472 39.1057 92.9472 37.6568L92.9499 37.6541H91.2144C91.2573 40.0055 93.0891 41.0419 95.3522 41.0419C97.3099 41.0419 99.2944 40.193 99.2944 38.0665C99.2944 37.0569 98.6543 36.0338 97.3634 35.6482C96.9747 35.5368 95.6265 35.199 94.9256 35.0234L94.9254 35.0233L94.9253 35.0233L94.9253 35.0233L94.9253 35.0233L94.9252 35.0233L94.9252 35.0233L94.925 35.0232C94.699 34.9666 94.5404 34.9269 94.5032 34.9171C93.7935 34.7162 93.3221 34.3707 93.3221 33.6931C93.3221 32.7371 94.3345 32.4585 95.1406 32.4585C96.3484 32.4585 97.1813 32.9085 97.2777 34.1324H99.0132C99.0132 32.1532 97.2644 31.1034 95.2102 31.1034C93.4186 31.1034 91.5867 31.9791 91.5867 33.894C91.5867 34.8769 92.0715 35.8731 93.7801 36.299C94.2528 36.4224 94.6665 36.524 95.0346 36.6144C95.7366 36.7868 96.273 36.9185 96.7368 37.0837C97.1385 37.231 97.5563 37.5497 97.5563 38.254C97.5563 38.9584 96.9858 39.6895 95.4593 39.6895ZM114.327 31.3309H107.192H107.19V40.8196H114.423V39.3841H108.925V36.6069H113.922V35.2517H108.925V32.7664H114.327V31.3309ZM129.016 34.3492C128.724 33.2458 127.988 32.4611 126.545 32.4611C124.421 32.4611 123.532 34.2554 123.532 36.0766C123.532 37.8977 124.421 39.692 126.545 39.692C128.101 39.692 128.917 38.5887 129.07 37.2067H130.763C130.61 39.4778 128.944 41.0472 126.542 41.0472C123.585 41.0472 121.793 38.8002 121.793 36.0766C121.793 33.3529 123.585 31.106 126.542 31.106C128.791 31.106 130.527 32.3031 130.749 34.3492H129.016ZM140.361 31.3309H138.626V37.4049C138.626 39.8367 140.251 41.0472 142.694 41.0472C145.136 41.0472 146.762 39.8367 146.762 37.4049V31.3309H145.026V36.8586C145.026 38.1334 144.943 39.609 142.694 39.609C140.444 39.609 140.361 38.1334 140.361 36.8586V31.3309ZM155.15 31.3309H159.884C162.064 31.3309 163.16 32.287 163.16 33.8966C163.16 35.7177 161.856 36.181 161.521 36.2882V36.3149C162.118 36.3819 162.994 36.8345 162.994 38.3209C162.994 39.4376 163.16 40.4339 163.535 40.8196H161.673C161.408 40.4071 161.408 39.8902 161.408 39.4243C161.408 37.6835 161.033 36.9122 159.437 36.9122H156.882V40.8196H155.147V31.3309H155.15ZM156.885 35.6508H159.732C160.843 35.6508 161.424 35.1446 161.424 34.1349C161.424 32.911 160.605 32.6861 159.702 32.6861H156.885V35.6508ZM173.045 31.3309H171.309V40.8196H173.045V31.3309ZM180.613 31.3309H188.637V32.7664H185.485V40.8196H183.749V32.7664H180.611V31.3309H180.613ZM195.038 31.3336L198.758 37.0996H198.76V40.8196H200.496V37.0996L204.202 31.3336H202.258L199.676 35.5865L197.052 31.3336H195.038Z" fill="black"/>
</svg>
