<svg viewBox="0 0 223 29" xmlns="http://www.w3.org/2000/svg">
<path d="M13.7442 5.97234V8.53744H13.2535L13.1933 8.60157V9.4012H13.1985V19.1407H13.1946V21.5723C13.6526 21.5278 14.1211 21.5095 14.5962 21.5226C15.316 21.5409 16.0489 21.6299 16.7726 21.7857C16.9532 21.8288 17.1338 21.8668 17.3131 21.9139C17.4924 21.965 17.6704 22.016 17.8484 22.0657C18.1795 22.1586 18.5093 22.2529 18.8365 22.3458L19.0878 22.4178C19.1676 22.4387 19.2448 22.4505 19.322 22.4688C19.4778 22.5015 19.6322 22.5343 19.7853 22.5657L20.0156 22.6154C20.0915 22.6324 20.1675 22.6507 20.2473 22.6586C20.2774 22.6625 20.3075 22.6664 20.3389 22.6704C23.0807 19.4823 25.5987 15.1059 25.7112 9.71399L24.9325 9.61583C24.6223 12.3733 23.2181 14.8272 21.1294 16.59C18.9307 18.1932 15.5974 17.5375 15.5974 14.4647V9.6407L15.6327 9.51244C15.6484 9.38811 15.9939 9.41429 16.0175 9.20751H16.3106C16.5096 9.20751 16.6705 9.05701 16.6705 8.87248C16.6705 8.68795 16.5096 8.53744 16.3106 8.53744H16.1902V7.93019L26.5239 8.98241V5.52607L16.1902 6.57828V5.97103H16.5423V5.59674H16.1379C15.9102 4.43066 14.8998 3.52241 13.6317 3.36667V2.88506C13.6317 2.69006 13.4629 2.5317 13.2548 2.5304L13.1278 2.56835L13.1213 5.96972H13.7442V5.97234ZM14.502 5.97234H15.2637V8.53744H14.502V5.97234Z" fill="white"/>
<path d="M17.0409 25.3663C16.7203 25.3283 16.4075 25.3166 16.1091 25.3218C15.8107 25.327 15.528 25.3506 15.2676 25.3846C15.0071 25.4186 14.7676 25.4631 14.5556 25.5102C14.3436 25.5587 14.1578 25.6045 14.0073 25.6516C13.8568 25.6974 13.7364 25.7353 13.6565 25.7668C13.5754 25.7955 13.5322 25.8139 13.5322 25.8139C13.5322 25.8139 13.5675 25.7798 13.6382 25.7223C13.7089 25.666 13.8136 25.5822 13.9536 25.4906C14.0937 25.4003 14.2664 25.2917 14.4719 25.187C14.6773 25.081 14.9142 24.9763 15.1799 24.8847C15.4456 24.7918 15.7387 24.7119 16.0554 24.6543C16.3708 24.5968 16.7098 24.5667 17.0618 24.5667C17.4139 24.568 17.779 24.6046 18.1455 24.6792C18.224 24.6949 18.3025 24.7132 18.381 24.7329C18.5852 24.5379 18.7894 24.3363 18.9961 24.1269C18.9242 24.1151 18.8522 24.1034 18.7828 24.089L18.5315 24.0222C18.1873 23.9293 17.8418 23.8364 17.4937 23.7435C17.3327 23.695 17.1731 23.6479 17.0121 23.5995C16.8511 23.555 16.6875 23.5184 16.5253 23.4778C15.8748 23.3247 15.2192 23.2187 14.5687 23.1611C14.1054 23.1218 13.6448 23.1048 13.1933 23.1114V28.4549L13.2548 28.714C13.2548 28.714 15.2257 27.5859 17.5997 25.4566C17.4113 25.4186 17.2241 25.3872 17.0396 25.3676L17.0409 25.3663Z" fill="white"/>
<path d="M6.0594 24.1308C6.0594 24.1308 6.11829 24.0575 6.2387 23.9306C6.36041 23.8063 6.5397 23.6204 6.78444 23.4097C7.03048 23.2003 7.33148 22.9464 7.69923 22.6925C8.06568 22.436 8.49232 22.1691 8.97786 21.9165C9.46209 21.6626 10.0039 21.4231 10.5941 21.2202C11.1844 21.0161 11.823 20.8525 12.4957 20.7399C13.1684 20.6313 13.8751 20.5803 14.5962 20.6012C15.316 20.6195 16.0489 20.7085 16.7726 20.8643C16.9532 20.9074 17.1338 20.9454 17.3131 20.9925C17.4924 21.0436 17.6704 21.0946 17.8484 21.1443C18.1795 21.2386 18.5093 21.3315 18.8365 21.4244L19.0878 21.4964C19.1689 21.5173 19.2448 21.5291 19.322 21.5474C19.4778 21.5801 19.6322 21.6128 19.7853 21.6443L20.0156 21.694C20.0915 21.711 20.1675 21.7293 20.2473 21.7372C20.403 21.7581 20.5588 21.7791 20.7119 21.8C20.865 21.8196 21.0194 21.8458 21.1699 21.8602C21.3204 21.8694 21.4709 21.8772 21.6188 21.8864C21.7667 21.8942 21.9146 21.9073 22.0586 21.9099C22.2025 21.9073 22.3452 21.9034 22.4852 21.9008C22.6252 21.8955 22.7666 21.9021 22.9027 21.8864C23.0388 21.872 23.1723 21.8589 23.3045 21.8458C23.5714 21.8288 23.8201 21.7673 24.0648 21.7267C24.125 21.7149 24.1865 21.7071 24.2454 21.6914C24.3043 21.6757 24.3619 21.66 24.4195 21.6443C24.5347 21.6128 24.6472 21.5827 24.7572 21.554C24.9731 21.4846 25.1786 21.41 25.3723 21.3393C25.7505 21.177 26.0829 21.02 26.3433 20.8603C26.4088 20.8198 26.4716 20.7818 26.5292 20.7465C26.5868 20.7072 26.6391 20.6706 26.6888 20.6378C26.7909 20.5724 26.8721 20.5083 26.9401 20.4559C27.0736 20.3512 27.143 20.2871 27.143 20.2871C27.143 20.2871 27.105 20.3787 27.0095 20.5345C26.961 20.6117 26.9022 20.7085 26.8249 20.8145C26.787 20.8682 26.7451 20.9271 26.6993 20.986C26.6509 21.0422 26.5998 21.1038 26.5449 21.1666C26.4376 21.3001 26.3054 21.4257 26.164 21.571C26.0201 21.7123 25.8499 21.8432 25.6706 21.9937C25.579 22.0617 25.4796 22.1259 25.3801 22.1965C25.278 22.2633 25.1773 22.3431 25.0647 22.402C24.9522 22.4635 24.837 22.5263 24.7192 22.5905C24.6603 22.6219 24.6001 22.6546 24.5386 22.6873C24.4771 22.7174 24.413 22.741 24.3488 22.7685C24.091 22.8705 23.824 23.0001 23.5348 23.0695C23.3908 23.1113 23.2443 23.1532 23.0951 23.1951C22.9459 23.2409 22.7914 23.2527 22.6357 23.2841C22.4787 23.3103 22.3203 23.3364 22.1593 23.3639C21.9984 23.3862 21.8348 23.3862 21.6686 23.3979C21.5024 23.4071 21.3348 23.4163 21.1647 23.4254C20.9946 23.4307 20.8257 23.411 20.653 23.4045C20.4802 23.3953 20.3075 23.3849 20.1321 23.3757C19.9568 23.3718 19.7775 23.3286 19.5995 23.3037C19.4202 23.2749 19.2396 23.2448 19.059 23.2147C18.9687 23.199 18.8757 23.1859 18.7881 23.1676L18.5368 23.1009C18.1926 23.0079 17.8471 22.915 17.499 22.8221C17.3393 22.7737 17.1783 22.7266 17.0174 22.6782C16.8564 22.6337 16.6928 22.597 16.5305 22.5564C15.8801 22.4033 15.2244 22.2973 14.574 22.2397C13.9235 22.1835 13.2796 22.1704 12.658 22.2096C12.035 22.241 11.4343 22.3209 10.8663 22.4229C10.2984 22.5263 9.7644 22.6598 9.27363 22.8038C8.78286 22.9491 8.33658 23.1061 7.94397 23.2579C7.55135 23.4137 7.20846 23.555 6.93232 23.6898C6.65487 23.822 6.43501 23.9293 6.28974 24.0104C6.14185 24.089 6.06464 24.1348 6.06464 24.1348L6.0594 24.1308Z" fill="white"/>
<path d="M13.5322 25.8113C13.5322 25.8113 13.5636 25.772 13.6264 25.7039C13.6906 25.6372 13.7848 25.539 13.9131 25.4265C14.0413 25.3152 14.201 25.1804 14.392 25.047C14.5831 24.9109 14.8069 24.7708 15.0595 24.6386C15.3121 24.5051 15.5935 24.3808 15.901 24.2774C16.2072 24.1727 16.5384 24.0903 16.8878 24.0366C17.2359 23.9843 17.601 23.9646 17.9727 23.983C18.3444 24 18.7213 24.0576 19.0943 24.1492C19.1872 24.174 19.2801 24.1976 19.3717 24.2251C19.4634 24.2552 19.555 24.284 19.6466 24.3141C19.8167 24.369 19.9855 24.4227 20.1531 24.4764L20.2813 24.5182C20.3232 24.53 20.3611 24.5379 20.4017 24.5483C20.4815 24.568 20.5614 24.5876 20.6399 24.6059L20.7577 24.6347C20.7969 24.6452 20.8362 24.6557 20.8768 24.6609C20.9566 24.674 21.0364 24.6871 21.1163 24.7001C21.1948 24.7119 21.2746 24.7276 21.3518 24.7381C21.4291 24.7446 21.5063 24.7512 21.5835 24.7577C21.6594 24.763 21.7353 24.7721 21.8099 24.7747C21.8845 24.7747 21.9578 24.7747 22.0311 24.7747C22.1031 24.7734 22.1763 24.7787 22.247 24.7708C22.3177 24.7643 22.387 24.759 22.4551 24.7525C22.5938 24.746 22.7221 24.7159 22.849 24.6962C22.8804 24.6897 22.9118 24.6871 22.9433 24.6792C22.9734 24.6714 23.0035 24.6635 23.0336 24.6557C23.0938 24.6399 23.1513 24.6256 23.2089 24.6098C23.3215 24.5745 23.4275 24.5366 23.5283 24.4999C23.7246 24.4162 23.8986 24.3337 24.0347 24.2499C24.0688 24.229 24.1015 24.2094 24.1316 24.1897C24.1617 24.1688 24.1892 24.1505 24.2153 24.1322C24.269 24.0981 24.3109 24.0641 24.3462 24.0366C24.4156 23.9817 24.4522 23.9476 24.4522 23.9476C24.4522 23.9476 24.4313 23.9974 24.3802 24.0811C24.3541 24.123 24.3227 24.1753 24.2821 24.2316C24.2611 24.2604 24.2402 24.2918 24.2153 24.3232C24.1892 24.3533 24.163 24.3861 24.1342 24.4201C24.0779 24.4908 24.0086 24.5588 23.9327 24.636C23.8567 24.7119 23.7678 24.78 23.6735 24.8598C23.6251 24.8965 23.5741 24.9305 23.5217 24.9671C23.4681 25.0025 23.4157 25.0443 23.3568 25.0758C23.2979 25.1085 23.2377 25.1412 23.1762 25.1739C23.1448 25.1909 23.1134 25.2079 23.082 25.2249C23.0493 25.2407 23.0165 25.2524 22.9825 25.2668C22.849 25.3205 22.709 25.3872 22.5585 25.4213C22.4839 25.4422 22.408 25.4631 22.3308 25.4854C22.2536 25.5089 22.1737 25.5142 22.0926 25.5286C22.0114 25.5417 21.929 25.5534 21.8465 25.5665C21.7628 25.577 21.679 25.5757 21.5927 25.5796C21.5063 25.5822 21.4199 25.5862 21.3322 25.5888C21.2445 25.5888 21.1568 25.577 21.0679 25.5718C20.9789 25.5652 20.8899 25.5574 20.7996 25.5508C20.7093 25.5469 20.6177 25.5207 20.5247 25.5063C20.4318 25.488 20.3402 25.471 20.246 25.4527C20.2002 25.4435 20.1517 25.4343 20.1059 25.4239L19.9764 25.3846C19.7997 25.331 19.6217 25.276 19.4437 25.2223C19.3613 25.1948 19.2788 25.1674 19.1964 25.1386C19.1139 25.1124 19.0302 25.0915 18.9464 25.0666C18.6127 24.9763 18.275 24.9122 17.94 24.8729C17.605 24.8349 17.2726 24.8219 16.9519 24.8363C16.63 24.8467 16.3198 24.8834 16.0253 24.9331C15.7309 24.9841 15.4534 25.0509 15.1995 25.1229C14.9456 25.1962 14.7127 25.2773 14.5085 25.3558C14.3044 25.4357 14.1264 25.5102 13.9811 25.5796C13.8371 25.649 13.722 25.7039 13.6461 25.7471C13.5689 25.789 13.5283 25.8126 13.5283 25.8126L13.5322 25.8113Z" fill="white"/>
<path d="M10.9121 14.4633C10.9121 17.5349 7.58013 18.1906 5.38148 16.59C3.29406 14.8272 1.88718 12.3746 1.57701 9.61714L0.798322 9.71529C0.922651 15.615 3.92487 20.2976 6.94933 23.5394C7.46366 23.2514 8.54074 22.7803 8.96215 22.5604C9.44638 22.3065 10.0039 22.3445 10.5941 22.1403C11.1831 21.9362 11.823 21.7726 12.4957 21.66C12.7431 21.6208 12.9956 21.588 13.2508 21.5645V18.7311C12.7745 18.7219 12.0756 18.6879 11.6149 18.6277V9.51113H13.2482V8.53613H12.7509V5.97103H13.2469V2.5304C13.0362 2.5304 12.8674 2.68875 12.8674 2.88506V3.36667C11.5992 3.52241 10.5902 4.43066 10.3625 5.59674H9.9594V5.97103H10.3114V6.57566L0 5.52738V8.98372L10.3114 7.93412V8.53875H10.1989C9.99997 8.53875 9.83899 8.68925 9.83899 8.87378C9.83899 9.05831 9.99997 9.20882 10.1989 9.20882H10.4737C10.4986 9.4156 10.8559 9.38942 10.8729 9.51375L10.9121 9.65902V14.4647V14.4633ZM11.2367 5.97234H11.9984V8.53744H11.2367V5.97234Z" fill="white"/>
<path d="M13.2521 18.7324V9.51245H13.2495V18.7324H13.2521Z" fill="white"/>
<path d="M12.6554 23.1284C12.0324 23.1598 11.4317 23.2396 10.8637 23.3417C10.2957 23.4451 9.76178 23.5786 9.27101 23.7226C8.78024 23.8678 8.33396 24.0249 7.94135 24.1767C7.84843 24.2133 7.75813 24.25 7.67044 24.2853C10.5549 27.1697 13.2535 28.7127 13.2535 28.7127V23.1088C13.0519 23.1114 12.853 23.1166 12.6567 23.1284H12.6554Z" fill="white"/>
<path d="M24.3894 4.97511L24.7846 4.92538C23.9798 3.09447 22.6881 1.49652 21.0613 0.27417C22.5716 1.53055 23.7324 3.14551 24.3907 4.97511H24.3894Z" fill="white"/>
<path d="M5.44691 0.27417C3.82016 1.49652 2.52976 3.09316 1.72359 4.92407L2.11751 4.9738C2.7758 3.1442 3.93664 1.52924 5.44691 0.27417Z" fill="white"/>
<path fill-rule="evenodd" clip-rule="evenodd" d="M66.2693 21.3332H60.0939V3.41772H55.3037V24.8752H66.2693V21.3332ZM48.1483 3.41776H39.2382V24.8782H48.1483C51.0051 24.8782 52.435 23.63 52.435 21.1337V16.9482C52.435 15.3962 51.9286 14.428 50.9157 14.0467C51.9286 13.6207 52.435 12.5751 52.435 10.9099V7.12955C52.435 4.65403 51.0051 3.41776 48.1483 3.41776ZM47.6746 7.56746V11.5831C47.6746 12.1461 47.3707 12.4262 46.763 12.4262H43.9956V6.72441H46.763C47.3707 6.72441 47.6746 7.00443 47.6746 7.56746ZM47.6746 16.5431V20.7285C47.6746 21.2916 47.3707 21.5716 46.763 21.5716H43.9956V15.7328H46.763C47.0997 15.7328 47.338 15.7954 47.472 15.9175C47.6061 16.0426 47.6746 16.2511 47.6746 16.5431ZM77.6073 24.8782L76.8655 20.9966H71.9711L71.2293 24.8782H66.4719L71.3306 3.41772H77.4732L82.4689 24.8782H77.6102H77.6073ZM72.6443 17.4874H76.1535L74.3989 8.41047L72.6443 17.4874ZM91.948 10.9426H96.8067H96.8097V7.12952C96.8097 4.654 95.3798 3.41772 92.5229 3.41772H88.2034C85.3704 3.41772 83.9524 4.654 83.9524 7.12952V21.1664C83.9524 23.6419 85.3704 24.8782 88.2034 24.8782H92.5229C95.3798 24.8782 96.8097 23.6419 96.8097 21.1664V17.4546H91.951V20.7285C91.951 21.0443 91.8825 21.2647 91.7484 21.3868C91.6114 21.509 91.3879 21.5715 91.0722 21.5715H89.6899C89.3533 21.5715 89.115 21.512 88.9809 21.3868C88.8469 21.2617 88.7784 21.0443 88.7784 20.7285V7.56742C88.7784 7.0044 89.0822 6.72438 89.6899 6.72438H91.0722C91.6561 6.72438 91.948 7.0044 91.948 7.56742V10.9426ZM99.3031 24.8782V3.41772H104.096V24.8782H99.3031ZM113.543 3.41772L109.223 14.0139L113.543 24.8782H108.347L104.198 14.0139L108.347 3.41772H113.543ZM132.34 21.3332H126.164V3.41772H121.374V24.8752H132.34V21.3332ZM143.675 24.8782L142.933 20.9966H138.039L137.297 24.8782H132.539L137.398 3.41772H143.541L148.536 24.8782H143.678H143.675ZM142.224 17.4874L140.469 8.41047L138.715 17.4874H142.224ZM163.586 3.41772H159.165H159.162V16.2392L154.539 3.41772H150.187V24.8782H154.575V12.021L159.267 24.8782H163.586V3.41772ZM177.927 3.41772V6.95972H173.98V24.8782H169.154V6.95972H165.24V3.41772H177.927ZM191.323 21.3332H184.439V15.7328H190.075V12.1908H184.439V6.95972H191.052V3.41772H179.613V24.8752H191.323V21.3332ZM198.205 16.8469V24.8782H193.412V3.41772H202.253C205.089 3.41772 206.504 4.654 206.504 7.12952V13.1351C206.504 15.1161 205.604 16.3077 203.805 16.7129L207.585 24.8782H202.423L199.048 16.8469H198.205ZM198.205 6.95972V13.439H200.802C201.118 13.439 201.342 13.3764 201.479 13.2543C201.613 13.1321 201.681 12.9236 201.681 12.6287V7.80276C201.681 7.23974 201.389 6.95972 200.802 6.95972H198.205ZM222.638 3.41772H218.217H218.214V16.2392L213.591 3.41772H209.239V24.8782H213.627V12.021L218.319 24.8782H222.638V3.41772Z" fill="white"/>
</svg>
